<svg width="192" height="192" viewBox="0 0 512 512" fill="none" xmlns="http://www.w3.org/2000/svg">
<rect width="512" height="512" fill="#6E9C9F"/>
<path d="M440.667 463.857L433.331 429.621C418.215 359.08 390.518 292.79 351 232.507V176.959C369.204 163.262 381 141.484 381 117V87C381 78.716 374.284 72 366 72H351V15C351 6.716 344.284 0 336 0C327.716 0 321 6.716 321 15V72.159C294.06 73.73 270.457 87.902 256 108.857C241.543 87.902 217.94 73.73 191 72.159V15C191 6.716 184.284 0 176 0C167.716 0 161 6.716 161 15V72H146C137.716 72 131 78.716 131 87V117C131 141.484 142.796 163.262 161 176.959V232.507C121.482 292.79 93.785 359.079 78.669 429.622L71.333 463.857C69.765 471.176 73.832 478.532 80.866 481.094C137.163 501.602 196.086 512 256 512C315.914 512 374.838 501.602 431.134 481.094C438.168 478.532 442.235 471.177 440.667 463.857ZM326 102H351V117C351 141.813 330.813 162 306 162H271V157C271 126.673 295.673 102 326 102ZM161 102H186C216.327 102 241 126.673 241 157V162H206C181.187 162 161 141.813 161 117V102ZM206 192H306C311.136 192 316.152 191.479 321 190.491V222H191V190.491C195.848 191.479 200.864 192 206 192ZM256 482C203.95 482 152.691 473.662 103.439 457.203L108.002 435.908C122.085 370.19 147.672 308.359 184.095 252L327.904 252.001C364.327 308.36 389.914 370.19 403.997 435.907L408.56 457.203C359.31 473.662 308.05 482 256 482Z" fill="black"/>
</svg>
