<?xml version="1.0" standalone="no"?>
<!DOCTYPE svg PUBLIC "-//W3C//DTD SVG 20010904//EN"
 "http://www.w3.org/TR/2001/REC-SVG-20010904/DTD/svg10.dtd">
<svg version="1.0" xmlns="http://www.w3.org/2000/svg"
 width="752.000000pt" height="752.000000pt" viewBox="0 0 752.000000 752.000000"
 preserveAspectRatio="xMidYMid meet">

<g transform="translate(0.000000,752.000000) scale(0.100000,-0.100000)"
fill="#000000" stroke="none">
<path d="M3635 5954 c-415 -87 -791 -287 -1096 -581 -194 -188 -334 -381 -455
-628 -155 -319 -224 -619 -224 -977 0 -354 71 -660 225 -973 123 -250 263
-444 456 -630 530 -510 1270 -725 1997 -579 355 71 708 241 988 477 113 95
137 130 136 195 0 51 -21 85 -73 120 -32 22 -39 23 -124 15 -133 -12 -408 -9
-505 5 -547 82 -1033 388 -1337 842 -138 206 -235 439 -289 695 -35 164 -45
473 -20 645 60 416 234 769 527 1076 116 120 132 156 105 229 -37 95 -111 112
-311 69z m-267 -406 c-197 -303 -316 -638 -359 -1007 -17 -148 -7 -444 20
-596 169 -959 918 -1696 1866 -1834 69 -10 129 -21 132 -25 10 -10 -200 -104
-325 -146 -477 -159 -987 -127 -1440 90 -405 194 -718 507 -911 911 -413 862
-132 1899 659 2431 84 57 346 198 367 198 3 0 -1 -10 -9 -22z"/>
</g>
</svg>
