<svg version="1.1" id="Layer_1" xmlns="http://www.w3.org/2000/svg" xmlns:xlink="http://www.w3.org/1999/xlink" x="0px" y="0px"
	 width="100%" viewBox="0 0 500 500" enable-background="new 0 0 500 500" xml:space="preserve">
<path fill="#FFFFFF" opacity="1.000000" stroke="none" 
	d="
M223.000000,501.000000 
	C148.666687,501.000000 74.833366,501.000000 1.000040,501.000000 
	C1.000026,334.333405 1.000026,167.666779 1.000013,1.000129 
	C167.666565,1.000086 334.333130,1.000086 500.999756,1.000043 
	C500.999847,167.666534 500.999847,334.333069 500.999939,500.999817 
	C408.500000,501.000000 316.000000,501.000000 223.000000,501.000000 
M238.264664,257.703796 
	C238.882004,261.091064 239.499329,264.478302 240.180405,268.215240 
	C244.835831,268.215240 249.307678,268.320221 253.767715,268.137146 
	C254.806961,268.094482 255.806015,267.072815 256.823578,266.501617 
	C255.861359,265.813995 254.939270,264.612244 253.929535,264.533447 
	C250.673828,264.279266 247.385818,264.438690 244.110275,264.438690 
	C244.500748,264.044342 244.891235,263.650024 245.281723,263.255676 
	C242.272125,257.105255 239.857910,250.555695 236.080109,244.920258 
	C232.529602,239.623917 226.570145,237.405319 220.180542,239.218903 
	C214.140305,240.933304 211.303223,245.981476 210.038177,251.765060 
	C209.229355,255.462921 209.038452,259.295929 208.457581,263.978943 
	C205.334702,263.299805 201.162277,263.663818 199.358765,261.770874 
	C192.986221,255.082336 186.576965,248.144135 181.755524,240.329529 
	C174.635666,228.789612 176.601028,217.427963 186.811447,209.046768 
	C193.352188,203.677841 201.056076,199.725891 206.669327,196.140915 
	C212.915588,200.991638 217.527649,204.870087 222.454041,208.296585 
	C225.842865,210.653641 229.729813,212.280975 233.278824,214.425308 
	C236.392410,216.306519 238.184021,218.802811 236.552597,222.763779 
	C236.195755,223.630157 236.988098,224.969864 237.251205,226.091568 
	C238.294388,225.523392 239.696503,225.211899 240.318314,224.342392 
	C242.941406,220.674530 242.566406,216.355103 238.569885,213.307251 
	C234.257538,210.018524 229.288544,207.593201 224.618607,204.770340 
	C219.662201,201.774323 214.316696,199.242126 212.713913,192.756180 
	C212.525848,191.995102 209.476349,191.005417 208.494247,191.524231 
	C200.601059,195.693924 192.258286,199.385529 185.252075,204.780518 
	C172.299316,214.754562 169.856949,228.190292 178.013321,242.444412 
	C181.764145,248.999390 187.157471,254.606873 191.726898,260.703278 
	C196.073288,266.502136 201.585648,268.989990 208.944748,268.003937 
	C212.194687,267.568451 213.529373,267.088257 213.426453,263.322388 
	C213.306274,258.925415 213.778503,254.282135 215.145203,250.124207 
	C217.720459,242.289413 225.321167,240.393631 231.225296,246.190842 
	C234.172913,249.085052 235.824509,253.299210 238.264664,257.703796 
M314.678467,177.039429 
	C312.695679,172.701324 310.848053,168.291306 308.612213,164.087799 
	C308.182556,163.279984 306.228180,163.283142 304.977203,162.912170 
	C305.096161,164.205795 304.975708,165.579422 305.376434,166.778900 
	C306.921600,171.403885 309.481689,175.866165 310.077789,180.589233 
	C310.906769,187.156845 307.674164,191.774048 303.139465,192.930511 
	C297.769226,194.300064 293.709259,192.158508 290.214874,186.006775 
	C287.834808,181.816757 285.822144,177.390228 283.154114,173.397629 
	C278.110291,165.849747 271.186035,162.075134 261.818237,163.916611 
	C250.895615,166.063751 239.881821,167.799332 229.039398,170.287827 
	C217.380447,172.963745 213.304596,183.143631 220.552292,192.693451 
	C224.877563,198.392609 231.003952,202.759949 236.500900,207.517731 
	C238.743423,209.458694 241.669083,210.608963 243.918289,212.543991 
	C247.491943,215.618469 247.984406,220.422241 245.355576,224.313553 
	C242.905960,227.939575 239.525253,229.939743 235.101303,228.481522 
	C230.369598,226.921860 230.460663,223.104874 231.078857,219.018127 
	C231.256699,217.842331 230.397415,216.509659 230.013657,215.248917 
	C228.938354,216.257843 227.363754,217.070663 226.876709,218.310654 
	C225.050369,222.960388 226.545258,227.995331 230.241867,230.914337 
	C234.057098,233.927063 239.914154,234.162964 244.331924,231.481796 
	C253.924683,225.660004 253.500916,213.595779 243.768677,206.772400 
	C237.539490,202.405045 231.079407,198.052536 225.896072,192.581787 
	C218.138977,184.394577 221.087555,176.412430 232.058289,174.102402 
	C240.839066,172.253479 249.656815,170.566650 258.488373,168.975510 
	C271.149200,166.694458 276.658569,169.505219 282.785889,181.005646 
	C284.738007,184.669617 286.519409,188.471542 288.884888,191.856827 
	C292.078735,196.427582 296.733459,198.471298 302.360840,197.626114 
	C308.198395,196.749405 312.146057,193.314362 313.718414,187.728806 
	C314.599457,184.599030 314.466461,181.183777 314.678467,177.039429 
M256.689606,240.449402 
	C261.992218,236.899750 266.949738,232.589279 272.682953,229.988953 
	C280.210388,226.574860 288.431122,224.728287 296.209808,221.822388 
	C323.593445,211.592560 326.899414,183.158447 320.555939,165.320526 
	C316.187744,153.037125 304.099487,150.954346 295.326019,160.510712 
	C292.491974,163.597626 291.905273,167.399216 294.072205,170.615082 
	C295.843872,173.244400 298.888092,175.197586 301.737976,176.787872 
	C302.425781,177.171677 304.574921,174.936752 306.052032,173.906082 
	C304.828613,173.288879 303.557617,172.749252 302.393555,172.035263 
	C300.861145,171.095322 298.555695,170.280762 298.143433,168.934357 
	C297.618378,167.219650 297.989716,164.449814 299.129272,163.137390 
	C304.917084,156.471634 312.490173,157.783447 316.118164,165.887451 
	C316.992126,167.839630 317.656342,169.956772 317.996643,172.065887 
	C321.625488,194.555130 313.042511,212.396759 289.718628,219.601410 
	C280.842865,222.343079 271.843475,225.093399 263.520447,229.121078 
	C250.571304,235.387466 246.716248,244.868256 250.226929,258.819153 
	C250.611176,260.346100 252.395798,261.520599 253.530899,262.858582 
	C253.856491,261.246918 254.661652,259.560028 254.422699,258.036926 
	C253.503204,252.175980 253.048553,246.449478 256.689606,240.449402 
M182.260620,294.410309 
	C182.260635,294.907867 182.156479,295.432770 182.278641,295.898254 
	C182.813339,297.935913 183.413635,299.956299 183.990143,301.982971 
	C184.634766,300.036163 185.498917,298.128845 185.858063,296.130707 
	C186.173767,294.374268 185.924042,292.516174 185.924042,290.029083 
	C190.607849,294.280151 192.447342,299.781555 198.657532,303.260712 
	C198.657532,296.482422 198.760254,291.239410 198.566132,286.007385 
	C198.529709,285.025421 197.307266,284.087433 196.632126,283.129181 
	C196.104538,284.189056 195.212540,285.218689 195.121628,286.314758 
	C194.899933,288.987793 195.049362,291.691620 195.049362,295.351593 
	C190.888077,290.421600 187.525970,286.438416 184.163849,282.455231 
	C183.529587,282.737335 182.895325,283.019440 182.261063,283.301544 
	C182.261063,286.687866 182.261063,290.074219 182.260620,294.410309 
M434.036285,296.532837 
	C434.036285,294.526093 434.036285,292.519318 434.036285,289.528229 
	C438.224182,294.592529 441.566376,298.634125 444.908539,302.675720 
	C445.520050,302.393829 446.131561,302.111969 446.743073,301.830078 
	C446.743073,296.129730 446.786682,290.428467 446.672913,284.730408 
	C446.662018,284.185944 445.669067,283.661102 445.132080,283.127136 
	C444.500580,283.928497 443.398651,284.688843 443.324554,285.538788 
	C443.089325,288.236237 443.237549,290.967194 443.237549,295.157654 
	C438.919525,290.115631 435.653503,286.302002 432.387482,282.488342 
	C431.840973,282.749939 431.294464,283.011536 430.747955,283.273132 
	C430.747955,288.996124 430.705841,294.719910 430.819824,300.440643 
	C430.830048,300.954407 431.841003,301.825470 432.403748,301.838959 
	C432.909882,301.851074 433.710327,300.992188 433.893646,300.373169 
	C434.166351,299.452271 434.010040,298.404327 434.036285,296.532837 
M305.096558,291.544678 
	C305.100281,294.026337 304.858459,296.544373 305.218384,298.973267 
	C305.381592,300.074890 306.660400,301.769379 307.567780,301.860931 
	C310.327698,302.139465 313.246490,302.175568 315.932831,301.560699 
	C320.783478,300.450470 323.015472,295.848145 321.975403,290.108185 
	C321.008484,284.771881 316.483673,282.450500 308.566895,283.030090 
	C302.675018,283.461426 306.001373,287.957153 305.096558,291.544678 
M258.270599,288.765564 
	C258.270599,291.097382 257.993317,293.472778 258.350952,295.748383 
	C258.687653,297.890808 259.693756,299.927979 260.405365,302.011475 
	C260.993530,299.963806 261.570404,297.912781 262.182648,295.872314 
	C262.269806,295.581879 262.528503,295.342896 262.646240,295.170319 
	C269.107605,292.543396 267.520203,302.954712 274.053223,301.943054 
	C272.612366,298.986328 271.484711,296.672272 270.064484,293.757904 
	C270.334503,293.598969 271.349976,293.333710 271.427673,292.900421 
	C271.860443,290.485504 273.152802,287.355286 272.137512,285.719696 
	C269.509521,281.486298 264.653809,283.076782 260.667633,283.332764 
	C259.775970,283.390015 259.065369,286.266937 258.270599,288.765564 
M413.029877,302.222961 
	C420.151093,302.172241 423.904785,298.681000 423.726501,292.274170 
	C423.561340,286.339233 419.239197,282.476807 413.332550,282.985779 
	C409.142334,283.346832 405.936035,286.584747 405.304443,291.093018 
	C404.587097,296.213287 406.989136,299.987671 413.029877,302.222961 
M281.703400,286.368073 
	C278.185486,293.481049 280.193451,300.313782 286.301605,302.014801 
	C290.734222,303.249207 294.859680,301.573425 296.929138,297.697815 
	C299.162628,293.514984 298.218048,287.675690 294.856506,284.884888 
	C291.371429,281.991486 286.744019,282.300323 281.703400,286.368073 
M135.673416,301.954041 
	C136.860687,299.491913 138.047958,297.029755 139.374771,294.278229 
	C141.466980,294.278229 144.222321,294.278229 147.100845,294.278229 
	C147.297485,296.529541 147.353027,298.517944 147.711792,300.450073 
	C147.819702,301.031189 148.705734,301.658966 149.362610,301.870972 
	C149.721130,301.986694 150.781204,301.283081 150.786423,300.937836 
	C150.876358,294.982513 150.851135,289.025452 150.851135,283.068787 
	C150.105301,282.994629 149.359451,282.920471 148.613617,282.846313 
	C147.981964,285.418823 147.350311,287.991302 146.680557,290.719055 
	C143.964859,290.719055 141.219040,290.719055 138.223938,290.719055 
	C138.147079,289.176086 138.292816,287.827545 137.959457,286.610168 
	C137.625443,285.390442 136.813126,284.301697 136.210464,283.155518 
	C135.578629,284.331512 134.411194,285.506165 134.408234,286.683746 
	C134.395798,291.624298 134.731964,296.565796 135.673416,301.954041 
M332.809296,285.965027 
	C332.135651,285.015411 331.462006,284.065765 330.788330,283.116150 
	C330.205933,284.141479 329.209595,285.132599 329.121399,286.198822 
	C328.888977,289.008453 328.933411,291.856964 329.081726,294.678711 
	C329.348175,299.748169 332.114655,302.387482 336.973480,302.426788 
	C342.080200,302.468109 344.846771,299.751587 345.011536,294.407043 
	C345.098663,291.580322 345.150452,288.740784 344.963409,285.923950 
	C344.899658,284.963928 344.057465,284.055603 343.570953,283.123657 
	C342.844299,284.039612 341.590942,284.901062 341.489532,285.881683 
	C341.182678,288.848389 341.833435,291.995361 341.096100,294.805786 
	C340.656281,296.482269 338.311310,297.658936 336.822754,299.060272 
	C335.503815,297.655273 333.465332,296.439850 333.033661,294.801147 
	C332.376709,292.307190 332.833069,289.520020 332.809296,285.965027 
M238.581085,302.177460 
	C239.732910,300.002502 240.884735,297.827545 242.285538,295.182465 
	C242.210220,295.190704 242.853989,295.048798 243.494476,295.062256 
	C246.928604,295.134583 250.702850,295.129425 251.549957,291.036652 
	C251.968384,289.015015 250.901123,285.022034 249.659866,284.635040 
	C246.046524,283.508301 242.008057,283.712799 238.129913,283.531097 
	C237.832001,283.517151 237.188354,284.575500 237.205399,285.119781 
	C237.380112,290.694977 237.658279,296.266907 238.581085,302.177460 
M113.270569,294.421143 
	C113.271339,295.586121 113.046974,296.809174 113.328949,297.901581 
	C113.694809,299.318970 114.463768,300.632324 115.059235,301.990448 
	C115.719620,300.729431 116.499527,299.513458 116.997673,298.191284 
	C117.321373,297.332123 117.234482,296.318298 117.373405,294.966248 
	C119.457153,294.966248 121.616364,295.593903 122.975777,294.818817 
	C125.003944,293.662415 127.265900,291.794067 127.983398,289.727020 
	C129.028107,286.717316 127.150940,284.319672 123.963211,283.349396 
	C116.206551,280.988525 113.269417,283.089783 113.270760,290.980804 
	C113.270905,291.812927 113.270935,292.645050 113.270569,294.421143 
M166.506439,297.869904 
	C169.530411,299.142303 172.554367,300.414703 176.759262,302.184021 
	C174.500885,297.160431 172.887634,293.211517 170.960770,289.422058 
	C169.819489,287.177551 168.182968,285.184814 166.769119,283.078888 
	C165.236923,285.262634 163.410645,287.300598 162.239456,289.663300 
	C160.343658,293.487823 158.878113,297.525665 156.735931,302.659637 
	C160.710739,300.521454 163.174988,299.195831 166.506439,297.869904 
M93.586319,295.260742 
	C93.683968,302.380981 98.265045,304.412720 106.488419,299.764740 
	C103.515678,299.409241 100.542938,299.053772 97.370331,298.674377 
	C97.370331,297.176270 97.370331,295.793060 97.370331,294.360413 
	C100.397438,293.992249 103.157967,293.656494 105.918503,293.320740 
	C105.932419,292.772736 105.946335,292.224731 105.960251,291.676727 
	C103.078232,291.302979 100.196220,290.929230 97.003151,290.515106 
	C97.182358,288.888062 97.333717,287.513855 97.471596,286.262054 
	C100.766396,286.011047 103.585159,285.796295 106.859528,285.546844 
	C106.188614,284.343445 106.058159,283.706146 105.727257,283.575104 
	C97.951378,280.496521 93.583435,283.313965 93.586174,291.359955 
	C93.586510,292.354431 93.586945,293.348877 93.586319,295.260742 
M64.234901,293.971741 
	C65.424072,293.647003 66.613251,293.322266 67.802429,292.997528 
	C67.751701,292.485321 67.700974,291.973083 67.650253,291.460876 
	C64.851151,291.171295 62.052044,290.881714 58.917900,290.557465 
	C59.102131,288.901001 59.254597,287.530121 59.382557,286.379639 
	C62.630585,286.023315 65.368294,285.722961 69.309929,285.290558 
	C65.097595,282.720612 56.343307,282.289368 56.187340,283.971680 
	C55.661667,289.641632 55.942265,295.386353 55.914486,301.102478 
	C59.906673,301.467316 63.898865,301.832153 67.891052,302.196991 
	C67.965050,301.386627 68.039047,300.576263 68.113037,299.765900 
	C65.135849,299.365662 62.158665,298.965454 59.357815,298.588928 
	C58.053387,294.397247 60.113476,293.611328 64.234901,293.971741 
M352.477936,296.539001 
	C354.060669,300.614197 357.244354,302.572388 361.395874,302.272430 
	C363.586182,302.114197 365.687775,300.727570 367.829407,299.895538 
	C367.719604,299.328857 367.609802,298.762146 367.500000,298.195435 
	C362.926300,298.279755 356.702606,301.600586 355.926697,293.683289 
	C355.006531,284.293762 361.870117,286.207184 367.860413,286.348480 
	C366.268463,284.630402 364.792725,283.365723 363.162506,283.118073 
	C355.270355,281.919067 350.483337,287.265045 352.477936,296.539001 
M270.035675,193.176880 
	C273.497620,192.365829 275.405212,189.941010 274.671265,186.681671 
	C274.247864,184.801315 272.261353,182.675507 270.437683,181.839294 
	C267.201355,180.355286 263.626801,182.820740 262.993530,186.306854 
	C262.307648,190.082687 264.476685,192.472275 270.035675,193.176880 
M382.778809,295.377350 
	C382.778809,292.436432 382.778809,289.495514 382.778809,286.713257 
	C385.301727,286.157776 387.203796,285.739014 389.812561,285.164612 
	C385.320190,282.146637 374.958344,282.392334 372.052429,285.484497 
	C374.447296,285.844666 376.443939,286.144989 378.985779,286.527283 
	C378.985779,290.622253 378.875916,294.738647 379.060181,298.841797 
	C379.108459,299.916595 380.069885,300.950409 380.611908,302.003021 
	C381.331451,300.934937 382.200623,299.933136 382.714447,298.773865 
	C383.022614,298.078552 382.775726,297.137268 382.778809,295.377350 
M217.930481,283.070282 
	C213.350891,283.623291 208.455811,281.859863 204.106232,284.101715 
	C204.107269,284.557251 204.108322,285.012817 204.109360,285.468384 
	C206.072189,285.829681 208.035034,286.190979 210.344208,286.616058 
	C210.344208,290.587769 210.166916,294.394073 210.441132,298.167572 
	C210.536087,299.473938 211.752136,300.698883 212.456131,301.960999 
	C212.978043,300.745514 213.888779,299.549286 213.949982,298.311035 
	C214.144333,294.379150 214.021881,290.431641 214.021881,286.303284 
	C215.998215,286.183868 217.555542,286.394379 218.889771,285.944000 
	C221.446838,285.080780 221.240021,283.960938 217.930481,283.070282 
M78.413971,284.436829 
	C75.785789,281.644867 75.103424,283.474396 75.004967,285.979767 
	C74.875114,289.283936 74.816040,292.606720 75.025513,295.902496 
	C75.151718,297.888153 75.601501,301.425385 76.325974,301.536957 
	C80.069107,302.113220 84.104141,302.977142 87.682884,301.089417 
	C87.687225,300.579559 87.691574,300.069672 87.695915,299.559784 
	C84.781380,299.214294 81.866844,298.868805 78.654633,298.488037 
	C78.654633,293.847290 78.654633,289.554108 78.413971,284.436829 
M398.138367,291.539520 
	C397.956360,288.705078 397.774353,285.870636 397.592346,283.036194 
	C396.945831,283.083435 396.299286,283.130646 395.652771,283.177856 
	C395.652771,289.434296 395.652771,295.690735 395.652771,301.947174 
	C396.316559,302.003326 396.980377,302.059479 397.644165,302.115631 
	C397.808960,298.912292 397.973724,295.708923 398.138367,291.539520 
z"/>
<path fill="#11212B" opacity="1.000000" stroke="none" 
	d="
M238.163483,257.310059 
	C235.824509,253.299210 234.172913,249.085052 231.225296,246.190842 
	C225.321167,240.393631 217.720459,242.289413 215.145203,250.124207 
	C213.778503,254.282135 213.306274,258.925415 213.426453,263.322388 
	C213.529373,267.088257 212.194687,267.568451 208.944748,268.003937 
	C201.585648,268.989990 196.073288,266.502136 191.726898,260.703278 
	C187.157471,254.606873 181.764145,248.999390 178.013321,242.444412 
	C169.856949,228.190292 172.299316,214.754562 185.252075,204.780518 
	C192.258286,199.385529 200.601059,195.693924 208.494247,191.524231 
	C209.476349,191.005417 212.525848,191.995102 212.713913,192.756180 
	C214.316696,199.242126 219.662201,201.774323 224.618607,204.770340 
	C229.288544,207.593201 234.257538,210.018524 238.569885,213.307251 
	C242.566406,216.355103 242.941406,220.674530 240.318314,224.342392 
	C239.696503,225.211899 238.294388,225.523392 237.251205,226.091583 
	C236.988098,224.969864 236.195755,223.630157 236.552597,222.763779 
	C238.184021,218.802811 236.392410,216.306519 233.278824,214.425308 
	C229.729813,212.280975 225.842865,210.653641 222.454041,208.296585 
	C217.527649,204.870087 212.915588,200.991638 206.669327,196.140915 
	C201.056076,199.725891 193.352188,203.677841 186.811447,209.046768 
	C176.601028,217.427963 174.635666,228.789612 181.755524,240.329529 
	C186.576965,248.144135 192.986221,255.082336 199.358765,261.770874 
	C201.162277,263.663818 205.334702,263.299805 208.457581,263.978943 
	C209.038452,259.295929 209.229355,255.462921 210.038177,251.765060 
	C211.303223,245.981476 214.140305,240.933304 220.180542,239.218903 
	C226.570145,237.405319 232.529602,239.623917 236.080109,244.920258 
	C239.857910,250.555695 242.272125,257.105255 245.281723,263.255676 
	C244.891235,263.650024 244.500748,264.044342 244.110275,264.438690 
	C247.385818,264.438690 250.673828,264.279266 253.929535,264.533447 
	C254.939270,264.612244 255.861359,265.813995 256.823578,266.501617 
	C255.806015,267.072815 254.806961,268.094482 253.767715,268.137146 
	C249.307678,268.320221 244.835831,268.215240 240.180405,268.215240 
	C239.499329,264.478302 238.882004,261.091064 238.163483,257.310059 
z"/>
<path fill="#FF9859" opacity="1.000000" stroke="none" 
	d="
M314.734436,177.468292 
	C314.466461,181.183777 314.599457,184.599030 313.718414,187.728806 
	C312.146057,193.314362 308.198395,196.749405 302.360840,197.626114 
	C296.733459,198.471298 292.078735,196.427582 288.884888,191.856827 
	C286.519409,188.471542 284.738007,184.669617 282.785889,181.005646 
	C276.658569,169.505219 271.149200,166.694458 258.488373,168.975510 
	C249.656815,170.566650 240.839066,172.253479 232.058289,174.102402 
	C221.087555,176.412430 218.138977,184.394577 225.896072,192.581787 
	C231.079407,198.052536 237.539490,202.405045 243.768677,206.772400 
	C253.500916,213.595779 253.924683,225.660004 244.331924,231.481796 
	C239.914154,234.162964 234.057098,233.927063 230.241867,230.914337 
	C226.545258,227.995331 225.050369,222.960388 226.876709,218.310654 
	C227.363754,217.070663 228.938354,216.257843 230.013657,215.248917 
	C230.397415,216.509659 231.256699,217.842331 231.078857,219.018127 
	C230.460663,223.104874 230.369598,226.921860 235.101303,228.481522 
	C239.525253,229.939743 242.905960,227.939575 245.355576,224.313553 
	C247.984406,220.422241 247.491943,215.618469 243.918289,212.543991 
	C241.669083,210.608963 238.743423,209.458694 236.500900,207.517731 
	C231.003952,202.759949 224.877563,198.392609 220.552292,192.693451 
	C213.304596,183.143631 217.380447,172.963745 229.039398,170.287827 
	C239.881821,167.799332 250.895615,166.063751 261.818237,163.916611 
	C271.186035,162.075134 278.110291,165.849747 283.154114,173.397629 
	C285.822144,177.390228 287.834808,181.816757 290.214874,186.006775 
	C293.709259,192.158508 297.769226,194.300064 303.139465,192.930511 
	C307.674164,191.774048 310.906769,187.156845 310.077789,180.589233 
	C309.481689,175.866165 306.921600,171.403885 305.376434,166.778900 
	C304.975708,165.579422 305.096161,164.205795 304.977203,162.912170 
	C306.228180,163.283142 308.182556,163.279984 308.612213,164.087799 
	C310.848053,168.291306 312.695679,172.701324 314.734436,177.468292 
z"/>
<path fill="#FF9756" opacity="1.000000" stroke="none" 
	d="
M256.468842,240.757538 
	C253.048553,246.449478 253.503204,252.175980 254.422699,258.036926 
	C254.661652,259.560028 253.856491,261.246918 253.530884,262.858582 
	C252.395798,261.520599 250.611176,260.346100 250.226929,258.819153 
	C246.716248,244.868256 250.571304,235.387466 263.520447,229.121078 
	C271.843475,225.093399 280.842865,222.343079 289.718628,219.601410 
	C313.042511,212.396759 321.625488,194.555130 317.996643,172.065887 
	C317.656342,169.956772 316.992126,167.839630 316.118164,165.887451 
	C312.490173,157.783447 304.917084,156.471634 299.129272,163.137390 
	C297.989716,164.449814 297.618378,167.219650 298.143433,168.934357 
	C298.555695,170.280762 300.861145,171.095322 302.393555,172.035263 
	C303.557617,172.749252 304.828613,173.288879 306.052032,173.906082 
	C304.574921,174.936752 302.425781,177.171677 301.737976,176.787872 
	C298.888092,175.197586 295.843872,173.244400 294.072205,170.615082 
	C291.905273,167.399216 292.491974,163.597626 295.326019,160.510712 
	C304.099487,150.954346 316.187744,153.037125 320.555939,165.320526 
	C326.899414,183.158447 323.593445,211.592560 296.209808,221.822388 
	C288.431122,224.728287 280.210388,226.574860 272.682953,229.988953 
	C266.949738,232.589279 261.992218,236.899750 256.468842,240.757538 
z"/>
<path fill="#FF9D60" opacity="1.000000" stroke="none" 
	d="
M182.260834,293.935425 
	C182.261063,290.074219 182.261063,286.687866 182.261063,283.301544 
	C182.895325,283.019440 183.529587,282.737335 184.163849,282.455231 
	C187.525970,286.438416 190.888077,290.421600 195.049362,295.351593 
	C195.049362,291.691620 194.899933,288.987793 195.121628,286.314758 
	C195.212540,285.218689 196.104538,284.189056 196.632141,283.129181 
	C197.307266,284.087433 198.529709,285.025421 198.566132,286.007385 
	C198.760254,291.239410 198.657532,296.482422 198.657532,303.260712 
	C192.447342,299.781555 190.607849,294.280151 185.924042,290.029083 
	C185.924042,292.516174 186.173767,294.374268 185.858063,296.130707 
	C185.498917,298.128845 184.634766,300.036163 183.990143,301.982971 
	C183.413635,299.956299 182.813339,297.935913 182.278641,295.898254 
	C182.156479,295.432770 182.260635,294.907867 182.260834,293.935425 
z"/>
<path fill="#FF9B5D" opacity="1.000000" stroke="none" 
	d="
M434.036255,296.971649 
	C434.010040,298.404327 434.166351,299.452271 433.893646,300.373169 
	C433.710327,300.992188 432.909882,301.851074 432.403748,301.838959 
	C431.841003,301.825470 430.830048,300.954407 430.819824,300.440643 
	C430.705841,294.719910 430.747955,288.996124 430.747955,283.273132 
	C431.294464,283.011536 431.840973,282.749939 432.387482,282.488342 
	C435.653503,286.302002 438.919525,290.115631 443.237549,295.157654 
	C443.237549,290.967194 443.089325,288.236237 443.324554,285.538788 
	C443.398651,284.688843 444.500580,283.928497 445.132080,283.127136 
	C445.669067,283.661102 446.662018,284.185944 446.672913,284.730408 
	C446.786682,290.428467 446.743073,296.129730 446.743073,301.830078 
	C446.131561,302.111969 445.520050,302.393829 444.908539,302.675720 
	C441.566376,298.634125 438.224182,294.592529 434.036285,289.528229 
	C434.036285,292.519318 434.036285,294.526093 434.036255,296.971649 
z"/>
<path fill="#FF9B5D" opacity="1.000000" stroke="none" 
	d="
M305.096619,291.064789 
	C306.001373,287.957153 302.675018,283.461426 308.566895,283.030090 
	C316.483673,282.450500 321.008484,284.771881 321.975403,290.108185 
	C323.015472,295.848145 320.783478,300.450470 315.932831,301.560699 
	C313.246490,302.175568 310.327698,302.139465 307.567780,301.860931 
	C306.660400,301.769379 305.381592,300.074890 305.218384,298.973267 
	C304.858459,296.544373 305.100281,294.026337 305.096619,291.064789 
M315.381470,286.920654 
	C313.393646,286.582520 311.405792,286.244415 309.254517,285.878479 
	C309.254517,290.703613 309.254517,294.735718 309.254517,300.241211 
	C312.590973,298.715393 316.560516,298.116638 317.235382,296.296387 
	C318.166595,293.784668 316.612122,290.351318 315.381470,286.920654 
z"/>
<path fill="#FF9C5E" opacity="1.000000" stroke="none" 
	d="
M258.270996,288.305634 
	C259.065369,286.266937 259.775970,283.390015 260.667633,283.332764 
	C264.653809,283.076782 269.509521,281.486298 272.137512,285.719696 
	C273.152802,287.355286 271.860443,290.485504 271.427673,292.900421 
	C271.349976,293.333710 270.334503,293.598969 270.064484,293.757904 
	C271.484711,296.672272 272.612366,298.986328 274.053223,301.943054 
	C267.520203,302.954712 269.107605,292.543396 262.646240,295.170319 
	C262.528503,295.342896 262.269806,295.581879 262.182648,295.872314 
	C261.570404,297.912781 260.993530,299.963806 260.405365,302.011475 
	C259.693756,299.927979 258.687653,297.890808 258.350952,295.748383 
	C257.993317,293.472778 258.270599,291.097382 258.270996,288.305634 
M266.873627,286.075653 
	C265.325867,286.075653 263.778076,286.075653 261.962036,286.075653 
	C262.091461,288.400635 262.179565,289.983307 262.329956,292.684692 
	C265.030823,291.728699 267.159851,290.975098 269.288910,290.221497 
	C268.745392,288.896851 268.201904,287.572205 266.873627,286.075653 
z"/>
<path fill="#FF9A5C" opacity="1.000000" stroke="none" 
	d="
M412.665039,302.154297 
	C406.989136,299.987671 404.587097,296.213287 405.304443,291.093018 
	C405.936035,286.584747 409.142334,283.346832 413.332550,282.985779 
	C419.239197,282.476807 423.561340,286.339233 423.726501,292.274170 
	C423.904785,298.681000 420.151093,302.172241 412.665039,302.154297 
M410.930389,287.407959 
	C410.598541,290.365509 409.430603,293.544830 410.141815,296.225677 
	C411.076965,299.750549 416.503571,300.488831 418.061279,297.356781 
	C419.288696,294.888916 419.513153,291.234009 418.661285,288.598145 
	C417.646149,285.457062 414.468201,285.267853 410.930389,287.407959 
z"/>
<path fill="#FF9859" opacity="1.000000" stroke="none" 
	d="
M281.937958,286.049744 
	C286.744019,282.300323 291.371429,281.991486 294.856506,284.884888 
	C298.218048,287.675690 299.162628,293.514984 296.929138,297.697815 
	C294.859680,301.573425 290.734222,303.249207 286.301605,302.014801 
	C280.193451,300.313782 278.185486,293.481049 281.937958,286.049744 
M284.529633,288.417633 
	C284.353851,290.706543 283.699371,293.100525 284.170654,295.247375 
	C284.484833,296.678528 286.223969,298.423248 287.654205,298.809296 
	C289.125275,299.206360 292.319153,298.381012 292.462097,297.644653 
	C293.079407,294.464996 293.899261,290.639130 292.663452,287.964111 
	C291.218414,284.836243 287.684418,285.362335 284.529633,288.417633 
z"/>
<path fill="#FF9756" opacity="1.000000" stroke="none" 
	d="
M135.306931,301.730469 
	C134.731964,296.565796 134.395798,291.624298 134.408234,286.683746 
	C134.411194,285.506165 135.578629,284.331512 136.210464,283.155518 
	C136.813126,284.301697 137.625443,285.390442 137.959457,286.610168 
	C138.292816,287.827545 138.147079,289.176086 138.223938,290.719055 
	C141.219040,290.719055 143.964859,290.719055 146.680557,290.719055 
	C147.350311,287.991302 147.981964,285.418823 148.613617,282.846313 
	C149.359451,282.920471 150.105301,282.994629 150.851135,283.068787 
	C150.851135,289.025452 150.876358,294.982513 150.786423,300.937836 
	C150.781204,301.283081 149.721130,301.986694 149.362610,301.870972 
	C148.705734,301.658966 147.819702,301.031189 147.711792,300.450073 
	C147.353027,298.517944 147.297485,296.529541 147.100845,294.278229 
	C144.222321,294.278229 141.466980,294.278229 139.374771,294.278229 
	C138.047958,297.029755 136.860687,299.491913 135.306931,301.730469 
z"/>
<path fill="#FF9A5C" opacity="1.000000" stroke="none" 
	d="
M332.812927,286.411194 
	C332.833069,289.520020 332.376709,292.307190 333.033661,294.801147 
	C333.465332,296.439850 335.503815,297.655273 336.822754,299.060272 
	C338.311310,297.658936 340.656281,296.482269 341.096100,294.805786 
	C341.833435,291.995361 341.182678,288.848389 341.489532,285.881683 
	C341.590942,284.901062 342.844299,284.039612 343.570953,283.123657 
	C344.057465,284.055603 344.899658,284.963928 344.963409,285.923950 
	C345.150452,288.740784 345.098663,291.580322 345.011536,294.407043 
	C344.846771,299.751587 342.080200,302.468109 336.973480,302.426788 
	C332.114655,302.387482 329.348175,299.748169 329.081726,294.678711 
	C328.933411,291.856964 328.888977,289.008453 329.121399,286.198822 
	C329.209595,285.132599 330.205933,284.141479 330.788330,283.116150 
	C331.462006,284.065765 332.135651,285.015411 332.812927,286.411194 
z"/>
<path fill="#FF9D60" opacity="1.000000" stroke="none" 
	d="
M238.244324,302.008606 
	C237.658279,296.266907 237.380112,290.694977 237.205399,285.119781 
	C237.188354,284.575500 237.832001,283.517151 238.129913,283.531097 
	C242.008057,283.712799 246.046524,283.508301 249.659866,284.635040 
	C250.901123,285.022034 251.968384,289.015015 251.549957,291.036652 
	C250.702850,295.129425 246.928604,295.134583 243.494476,295.062256 
	C242.853989,295.048798 242.210220,295.190704 242.285538,295.182465 
	C240.884735,297.827545 239.732910,300.002502 238.244324,302.008606 
M246.847061,286.476807 
	C244.980911,286.361572 243.114761,286.246338 240.887863,286.108795 
	C241.016373,288.470581 241.108917,290.171356 241.197586,291.800934 
	C247.991730,292.203308 248.386887,291.871674 246.847061,286.476807 
z"/>
<path fill="#FF9C5E" opacity="1.000000" stroke="none" 
	d="
M113.270798,293.949158 
	C113.270935,292.645050 113.270905,291.812927 113.270760,290.980804 
	C113.269417,283.089783 116.206551,280.988525 123.963211,283.349396 
	C127.150940,284.319672 129.028107,286.717316 127.983398,289.727020 
	C127.265900,291.794067 125.003944,293.662415 122.975777,294.818817 
	C121.616364,295.593903 119.457153,294.966248 117.373405,294.966248 
	C117.234482,296.318298 117.321373,297.332123 116.997673,298.191284 
	C116.499527,299.513458 115.719620,300.729431 115.059219,301.990448 
	C114.463768,300.632324 113.694809,299.318970 113.328949,297.901581 
	C113.046974,296.809174 113.271339,295.586121 113.270798,293.949158 
M123.503517,291.527374 
	C123.641251,290.083435 124.297684,287.615692 123.825157,287.376282 
	C121.974747,286.438812 119.767838,286.204956 117.281380,285.611298 
	C117.281380,288.165344 117.281380,289.873901 117.281380,291.607025 
	C117.954575,291.795715 118.405464,292.028198 118.856445,292.028381 
	C120.157448,292.028839 121.458481,291.935669 123.503517,291.527374 
z"/>
<path fill="#FF9A5C" opacity="1.000000" stroke="none" 
	d="
M166.072845,297.870056 
	C163.174988,299.195831 160.710739,300.521454 156.735931,302.659637 
	C158.878113,297.525665 160.343658,293.487823 162.239456,289.663300 
	C163.410645,287.300598 165.236923,285.262634 166.769119,283.078888 
	C168.182968,285.184814 169.819489,287.177551 170.960770,289.422058 
	C172.887634,293.211517 174.500885,297.160431 176.759262,302.184021 
	C172.554367,300.414703 169.530411,299.142303 166.072845,297.870056 
M167.169144,294.972076 
	C170.046982,293.823303 170.008560,293.339752 166.643417,288.353058 
	C163.326767,293.529297 163.322113,293.651947 167.169144,294.972076 
z"/>
<path fill="#FF9859" opacity="1.000000" stroke="none" 
	d="
M93.586823,294.802063 
	C93.586945,293.348877 93.586510,292.354431 93.586174,291.359955 
	C93.583435,283.313965 97.951378,280.496521 105.727257,283.575104 
	C106.058159,283.706146 106.188614,284.343445 106.859528,285.546844 
	C103.585159,285.796295 100.766396,286.011047 97.471596,286.262054 
	C97.333717,287.513855 97.182358,288.888062 97.003151,290.515106 
	C100.196220,290.929230 103.078232,291.302979 105.960251,291.676727 
	C105.946335,292.224731 105.932419,292.772736 105.918503,293.320740 
	C103.157967,293.656494 100.397438,293.992249 97.370331,294.360413 
	C97.370331,295.793060 97.370331,297.176270 97.370331,298.674377 
	C100.542938,299.053772 103.515678,299.409241 106.488419,299.764740 
	C98.265045,304.412720 93.683968,302.380981 93.586823,294.802063 
z"/>
<path fill="#FF9E62" opacity="1.000000" stroke="none" 
	d="
M63.800926,293.972473 
	C60.113476,293.611328 58.053387,294.397247 59.357815,298.588928 
	C62.158665,298.965454 65.135849,299.365662 68.113037,299.765900 
	C68.039047,300.576263 67.965050,301.386627 67.891052,302.196991 
	C63.898865,301.832153 59.906673,301.467316 55.914486,301.102478 
	C55.942265,295.386353 55.661667,289.641632 56.187340,283.971680 
	C56.343307,282.289368 65.097595,282.720612 69.309929,285.290558 
	C65.368294,285.722961 62.630585,286.023315 59.382557,286.379639 
	C59.254597,287.530121 59.102131,288.901001 58.917900,290.557465 
	C62.052044,290.881714 64.851151,291.171295 67.650253,291.460876 
	C67.700974,291.973083 67.751701,292.485321 67.802429,292.997528 
	C66.613251,293.322266 65.424072,293.647003 63.800926,293.972473 
z"/>
<path fill="#FF9859" opacity="1.000000" stroke="none" 
	d="
M352.339294,296.154602 
	C350.483337,287.265045 355.270355,281.919067 363.162506,283.118073 
	C364.792725,283.365723 366.268463,284.630402 367.860413,286.348480 
	C361.870117,286.207184 355.006531,284.293762 355.926697,293.683289 
	C356.702606,301.600586 362.926300,298.279755 367.500000,298.195435 
	C367.609802,298.762146 367.719604,299.328857 367.829407,299.895538 
	C365.687775,300.727570 363.586182,302.114197 361.395874,302.272430 
	C357.244354,302.572388 354.060669,300.614197 352.339294,296.154602 
z"/>
<path fill="#10202A" opacity="1.000000" stroke="none" 
	d="
M269.681091,193.230316 
	C264.476685,192.472275 262.307648,190.082687 262.993530,186.306854 
	C263.626801,182.820740 267.201355,180.355286 270.437683,181.839294 
	C272.261353,182.675507 274.247864,184.801315 274.671265,186.681671 
	C275.405212,189.941010 273.497620,192.365829 269.681091,193.230316 
z"/>
<path fill="#FF9D60" opacity="1.000000" stroke="none" 
	d="
M382.778564,295.841919 
	C382.775726,297.137268 383.022614,298.078552 382.714447,298.773865 
	C382.200623,299.933136 381.331451,300.934937 380.611938,302.003052 
	C380.069885,300.950409 379.108459,299.916595 379.060181,298.841797 
	C378.875916,294.738647 378.985779,290.622253 378.985779,286.527283 
	C376.443939,286.144989 374.447296,285.844666 372.052429,285.484497 
	C374.958344,282.392334 385.320190,282.146637 389.812561,285.164612 
	C387.203796,285.739014 385.301727,286.157776 382.778809,286.713257 
	C382.778809,289.495514 382.778809,292.436432 382.778564,295.841919 
z"/>
<path fill="#FF9756" opacity="1.000000" stroke="none" 
	d="
M218.355438,283.085480 
	C221.240021,283.960938 221.446838,285.080780 218.889771,285.944000 
	C217.555542,286.394379 215.998215,286.183868 214.021881,286.303284 
	C214.021881,290.431641 214.144333,294.379150 213.949982,298.311035 
	C213.888779,299.549286 212.978043,300.745514 212.456116,301.960999 
	C211.752136,300.698883 210.536087,299.473938 210.441132,298.167572 
	C210.166916,294.394073 210.344208,290.587769 210.344208,286.616058 
	C208.035034,286.190979 206.072189,285.829681 204.109360,285.468384 
	C204.108322,285.012817 204.107269,284.557251 204.106232,284.101715 
	C208.455811,281.859863 213.350891,283.623291 218.355438,283.085480 
z"/>
<path fill="#FF9C5E" opacity="1.000000" stroke="none" 
	d="
M78.534302,284.848877 
	C78.654633,289.554108 78.654633,293.847290 78.654633,298.488037 
	C81.866844,298.868805 84.781380,299.214294 87.695915,299.559784 
	C87.691574,300.069672 87.687225,300.579559 87.682884,301.089417 
	C84.104141,302.977142 80.069107,302.113220 76.325974,301.536957 
	C75.601501,301.425385 75.151718,297.888153 75.025513,295.902496 
	C74.816040,292.606720 74.875114,289.283936 75.004967,285.979767 
	C75.103424,283.474396 75.785789,281.644867 78.534302,284.848877 
z"/>
<path fill="#FF9350" opacity="1.000000" stroke="none" 
	d="
M398.138428,292.022552 
	C397.973724,295.708923 397.808960,298.912292 397.644165,302.115631 
	C396.980377,302.059479 396.316559,302.003326 395.652771,301.947174 
	C395.652771,295.690735 395.652771,289.434296 395.652771,283.177856 
	C396.299286,283.130646 396.945831,283.083435 397.592346,283.036194 
	C397.774353,285.870636 397.956360,288.705078 398.138428,292.022552 
z"/>
<path fill="#FFFCFA" opacity="1.000000" stroke="none" 
	d="
M315.751892,287.116699 
	C316.612122,290.351318 318.166595,293.784668 317.235382,296.296387 
	C316.560516,298.116638 312.590973,298.715393 309.254517,300.241211 
	C309.254517,294.735718 309.254517,290.703613 309.254517,285.878479 
	C311.405792,286.244415 313.393646,286.582520 315.751892,287.116699 
z"/>
<path fill="#FFFBF9" opacity="1.000000" stroke="none" 
	d="
M267.266022,286.161621 
	C268.201904,287.572205 268.745392,288.896851 269.288910,290.221497 
	C267.159851,290.975098 265.030823,291.728699 262.329956,292.684692 
	C262.179565,289.983307 262.091461,288.400635 261.962036,286.075653 
	C263.778076,286.075653 265.325867,286.075653 267.266022,286.161621 
z"/>
<path fill="#FFFCFA" opacity="1.000000" stroke="none" 
	d="
M411.234985,287.154144 
	C414.468201,285.267853 417.646149,285.457062 418.661285,288.598145 
	C419.513153,291.234009 419.288696,294.888916 418.061279,297.356781 
	C416.503571,300.488831 411.076965,299.750549 410.141815,296.225677 
	C409.430603,293.544830 410.598541,290.365509 411.234985,287.154144 
z"/>
<path fill="#FFFBF9" opacity="1.000000" stroke="none" 
	d="
M284.774445,288.084961 
	C287.684418,285.362335 291.218414,284.836243 292.663452,287.964111 
	C293.899261,290.639130 293.079407,294.464996 292.462097,297.644653 
	C292.319153,298.381012 289.125275,299.206360 287.654205,298.809296 
	C286.223969,298.423248 284.484833,296.678528 284.170654,295.247375 
	C283.699371,293.100525 284.353851,290.706543 284.774445,288.084961 
z"/>
<path fill="#FFFFFF" opacity="1.000000" stroke="none" 
	d="
M247.185211,286.749817 
	C248.386887,291.871674 247.991730,292.203308 241.197586,291.800934 
	C241.108917,290.171356 241.016373,288.470581 240.887863,286.108795 
	C243.114761,286.246338 244.980911,286.361572 247.185211,286.749817 
z"/>
<path fill="#FFFBF9" opacity="1.000000" stroke="none" 
	d="
M123.131516,291.703308 
	C121.458481,291.935669 120.157448,292.028839 118.856445,292.028381 
	C118.405464,292.028198 117.954575,291.795715 117.281380,291.607025 
	C117.281380,289.873901 117.281380,288.165344 117.281380,285.611298 
	C119.767838,286.204956 121.974747,286.438812 123.825157,287.376282 
	C124.297684,287.615692 123.641251,290.083435 123.131516,291.703308 
z"/>
<path fill="#FFF4EE" opacity="1.000000" stroke="none" 
	d="
M166.780823,294.970551 
	C163.322113,293.651947 163.326767,293.529297 166.643417,288.353058 
	C170.008560,293.339752 170.046982,293.823303 166.780823,294.970551 
z"/>
</svg>